<?xml version="1.0" encoding="UTF-8"?>
<svg id="Layer_2" data-name="Layer 2" xmlns="http://www.w3.org/2000/svg" viewBox="0 0 437.97 149.15">
  <defs>
    <style>
      .cls-1 {
        fill: #005eb7;
      }

      .cls-2 {
        fill: #4b5964;
      }
    </style>
  </defs>
  <g id="Layer_1-2" data-name="Layer 1">
    <g>
      <polygon class="cls-1" points="407.09 43.41 436.78 1.81 418.91 1.81 397.98 31.82 377.16 1.81 358.82 1.81 388.62 43.65 357.61 86.95 375.48 86.95 397.61 55.24 419.62 86.95 437.97 86.95 407.09 43.41"/>
      <path class="cls-2" d="M153.99,7.41l-.2-.14c-6.2-4.05-13.02-6.41-19.91-7.08l-.12,13.71c12,1.49,21.01,10.1,24.11,21.35.76,2.78,1.17,5.72,1.17,8.76v.24c0,9.04-3.52,17.17-9.46,22.7,0,0-.03.03-.05.04-4.31,3.99-9.9,6.6-16.32,7.22l-.11,13.82c5.6-.34,10.81-1.62,15.51-3.65,6.82-3.38,12.96-8.71,17.74-16.02,14.18-21.72,7.55-47.95-12.35-60.94ZM91.48,20.39c-14.18,21.72-7.54,47.95,12.36,60.95l.2.13c.42.27.84.53,1.26.79.02.02.05.03.07.05,6.15,3.49,13.38,5.58,21.39,5.78l.09-13.78c-10.09-.51-18.3-5.95-23.03-13.89-2.84-4.75-4.43-10.4-4.43-16.41v-.24c0-8.22,2.91-15.69,7.9-21.14,4.9-5.34,11.81-8.72,19.96-8.96l.08-13.68c-13.67.17-27.1,6.97-35.87,20.39Z"/>
      <path class="cls-2" d="M67.68,63.44c-7.24,6.76-13.87,10.98-24.25,10.98-16.16,0-27.86-13.51-27.86-30.04v-.24c0-16.53,11.7-29.8,27.86-29.8,9.65,0,16.89,4.22,23.65,10.49l9.52-10.97C68.52,6.14,59.11.71,43.55.71,17.98.71,0,20.37,0,44.38v.24c0,24.25,18.34,43.42,42.95,43.42,15.8,0,25.45-5.78,34.26-14.95l-9.53-9.65Z"/>
      <path class="cls-2" d="M241.76,54.63c11.82-3.38,20.14-11.7,20.14-25.57v-.24c0-7.36-2.53-13.63-6.99-18.21-5.43-5.31-13.75-8.44-24.37-8.44h-37.65v84.44h14.84v-29.43h18.58l20.75,29.43h17.49l-22.8-31.97ZM207.74,44.02V15.66h21.59c10.97,0,17.49,4.95,17.49,14v.24c0,8.57-6.76,14.12-17.37,14.12h-21.72Z"/>
      <path class="cls-2" d="M294.97,73.33v-22.68h42.34v-13.27h-42.34V15.42h47.77V2.16h-62.62v84.44h63.21v-13.27h-48.37Z"/>
      <g>
        <path class="cls-2" d="M16.46,118.44c-9,0-14.97,7.26-14.97,15.36v.08c0,8.1,5.89,15.27,14.89,15.27s14.97-7.25,14.97-15.35v-.08c0-8.1-5.9-15.28-14.89-15.28ZM29.06,133.88c0,7.33-5.26,13.27-12.59,13.27s-12.69-6.02-12.69-13.36v-.08c0-7.34,5.26-13.28,12.6-13.28s12.68,6.02,12.68,13.37v.08Z"/>
        <path class="cls-2" d="M66.6,118.95h-10.78v29.7h2.21v-11.07h8.02c6.19,0,11.58-3.23,11.58-9.46v-.08c0-5.73-4.5-9.08-11.03-9.08ZM75.43,128.24c0,4.41-3.74,7.29-9.25,7.29h-8.14v-14.54h8.4c5.35,0,9,2.46,9,7.16v.08Z"/>
        <path class="cls-2" d="M103.34,146.61v-11.93h17.02v-2.03h-17.02v-11.66h18.93v-2.04h-21.13v29.7h21.34v-2.03h-19.14Z"/>
        <path class="cls-2" d="M160.91,135.96c5-.69,8.7-3.53,8.7-8.49v-.08c0-2.12-.86-4.11-2.25-5.52-1.79-1.78-4.72-2.93-8.36-2.93h-12.47v29.7h2.2v-12.3h9.71l9.46,12.3h2.8l-9.8-12.68ZM148.73,134.35v-13.36h10.14c5.39,0,8.53,2.49,8.53,6.49v.08c0,4.28-3.69,6.79-8.65,6.79h-10.01Z"/>
        <path class="cls-2" d="M207.58,118.74h-2.13l-13.83,29.9h2.29l3.77-8.31h17.53l3.77,8.31h2.42l-13.83-29.9ZM198.63,138.34l7.84-17.18,7.81,17.18h-15.65Z"/>
        <path class="cls-2" d="M238.72,118.95v2.04h10.35v27.65h2.2v-27.65h10.35v-2.04h-22.91Z"/>
        <path class="cls-2" d="M285.59,118.95v29.7h2.21v-29.7h-2.21Z"/>
        <path class="cls-2" d="M327.55,118.44c-9,0-14.97,7.26-14.97,15.36v.08c0,8.1,5.89,15.27,14.89,15.27s14.98-7.25,14.98-15.35v-.08c0-8.1-5.9-15.28-14.89-15.28ZM340.14,133.88c0,7.33-5.26,13.27-12.59,13.27s-12.69-6.02-12.69-13.36v-.08c0-7.34,5.26-13.28,12.6-13.28s12.68,6.02,12.68,13.37v.08Z"/>
        <path class="cls-2" d="M389.48,118.95v25.84l-20.49-25.84h-2.08v29.7h2.13v-26.38l20.91,26.38h1.66v-29.7h-2.13Z"/>
        <path class="cls-2" d="M427.54,132.69c-7.04-1.44-8.65-3.35-8.65-6.49v-.08c0-3.1,2.88-5.6,7.25-5.6,3.28,0,6.07.93,8.87,3.35l1.4-1.74c-3.01-2.42-5.85-3.6-10.18-3.6-5.51,0-9.54,3.4-9.54,7.8v.08c0,4.5,2.89,6.92,10.01,8.36,6.75,1.36,8.4,3.18,8.4,6.33v.08c0,3.39-3.05,5.89-7.5,5.89s-7.39-1.39-10.65-4.4l-1.44,1.65c3.57,3.18,7.21,4.75,11.96,4.75,5.73,0,9.85-3.3,9.85-8.1v-.08c0-4.32-2.89-6.79-9.76-8.19Z"/>
      </g>
    </g>
  </g>
</svg>