<?xml version="1.0" encoding="UTF-8"?>
<svg id="Layer_1" xmlns="http://www.w3.org/2000/svg" version="1.1" viewBox="0 0 531.4 192.8">
  <!-- Generator: Adobe Illustrator 29.8.4, SVG Export Plug-In . SVG Version: 2.1.1 Build 6)  -->
  <defs>
    <style>
      .st0 {
        fill: #fff;
      }
    </style>
  </defs>
  <polygon class="st0" points="426.6 69.7 452 34.1 436.7 34.1 418.8 59.8 401 34.1 385.3 34.1 410.8 69.9 384.3 107 399.5 107 418.5 79.8 437.3 107 453 107 426.6 69.7"/>
  <path class="st0" d="M210.1,38.9h-.2c-5.3-3.6-11.1-5.6-17-6.2v11.7c10.2,1.3,17.9,8.6,20.5,18.3.7,2.4,1,4.9,1,7.5v.2c0,7.7-3,14.7-8.1,19.4,0,0,0,0,0,0-3.7,3.4-8.5,5.6-14,6.2v11.8c4.7-.3,9.1-1.4,13.2-3.1,5.8-2.9,11.1-7.5,15.2-13.7,12.1-18.6,6.5-41-10.6-52.1ZM156.6,50c-12.1,18.6-6.5,41,10.6,52.1h.2c.4.3.7.6,1.1.8,0,0,0,0,0,0,5.3,3,11.4,4.8,18.3,4.9v-11.8c-8.6-.4-15.6-5.1-19.6-11.9-2.4-4.1-3.8-8.9-3.8-14v-.2c0-7,2.5-13.4,6.8-18.1,4.2-4.6,10.1-7.5,17.1-7.7v-11.7c-11.6.1-23.1,6-30.6,17.4Z"/>
  <path class="st0" d="M136.3,86.9c-6.2,5.8-11.9,9.4-20.7,9.4-13.8,0-23.8-11.6-23.8-25.7v-.2c0-14.1,10-25.5,23.8-25.5s14.4,3.6,20.2,9l8.1-9.4c-6.9-6.6-15-11.2-28.3-11.2-21.9,0-37.3,16.8-37.3,37.4v.2c0,20.7,15.7,37.1,36.7,37.1s21.8-4.9,29.3-12.8l-8.2-8.3Z"/>
  <path class="st0" d="M285.2,79.3c10.1-2.9,17.2-10,17.2-21.9v-.2c0-6.3-2.2-11.7-6-15.6-4.6-4.5-11.8-7.2-20.8-7.2h-32.2v72.2h12.7v-25.2h15.9l17.7,25.2h15l-19.5-27.3ZM256.1,70.2v-24.3h18.5c9.4,0,15,4.2,15,12v.2c0,7.3-5.8,12.1-14.9,12.1h-18.6Z"/>
  <path class="st0" d="M330.7,95.3v-19.4h36.2v-11.4h-36.2v-18.8h40.9v-11.3h-53.6v72.2h54.1v-11.4h-41.4Z"/>
  <g>
    <path class="st0" d="M92.5,133.9c-7.7,0-12.8,6.2-12.8,13.1h0c0,7,5,13.1,12.7,13.1s12.8-6.2,12.8-13.1h0c0-7-5-13.1-12.7-13.1ZM103.2,147.1c0,6.3-4.5,11.4-10.8,11.4s-10.9-5.2-10.9-11.4h0c0-6.4,4.5-11.4,10.8-11.4s10.8,5.2,10.8,11.4h0Z"/>
    <path class="st0" d="M135.4,134.3h-9.2v25.4h1.9v-9.5h6.9c5.3,0,9.9-2.8,9.9-8.1h0c0-5-3.8-7.8-9.4-7.8ZM142.9,142.3c0,3.8-3.2,6.2-7.9,6.2h-7v-12.4h7.2c4.6,0,7.7,2.1,7.7,6.1h0Z"/>
    <path class="st0" d="M166.8,158v-10.2h14.6v-1.7h-14.6v-10h16.2v-1.7h-18.1v25.4h18.3v-1.7h-16.4Z"/>
    <path class="st0" d="M216,148.9c4.3-.6,7.4-3,7.4-7.3h0c0-1.9-.7-3.6-1.9-4.8-1.5-1.5-4-2.5-7.1-2.5h-10.7v25.4h1.9v-10.5h8.3l8.1,10.5h2.4l-8.4-10.8ZM205.6,147.5v-11.4h8.7c4.6,0,7.3,2.1,7.3,5.5h0c0,3.7-3.2,5.9-7.4,5.9h-8.6Z"/>
    <path class="st0" d="M255.9,134.2h-1.8l-11.8,25.6h2l3.2-7.1h15l3.2,7.1h2.1l-11.8-25.6ZM248.3,150.9l6.7-14.7,6.7,14.7h-13.4Z"/>
    <path class="st0" d="M282.6,134.3v1.7h8.9v23.7h1.9v-23.7h8.9v-1.7h-19.6Z"/>
    <path class="st0" d="M322.7,134.3v25.4h1.9v-25.4h-1.9Z"/>
    <path class="st0" d="M358.6,133.9c-7.7,0-12.8,6.2-12.8,13.1h0c0,7,5,13.1,12.7,13.1s12.8-6.2,12.8-13.1h0c0-7-5-13.1-12.7-13.1ZM369.3,147.1c0,6.3-4.5,11.4-10.8,11.4s-10.9-5.2-10.9-11.4h0c0-6.4,4.5-11.4,10.8-11.4s10.8,5.2,10.8,11.4h0Z"/>
    <path class="st0" d="M411.5,134.3v22.1l-17.5-22.1h-1.8v25.4h1.8v-22.6l17.9,22.6h1.4v-25.4h-1.8Z"/>
    <path class="st0" d="M444.1,146.1c-6-1.2-7.4-2.9-7.4-5.5h0c0-2.7,2.5-4.9,6.2-4.9s5.2.8,7.6,2.9l1.2-1.5c-2.6-2.1-5-3.1-8.7-3.1s-8.2,2.9-8.2,6.7h0c0,3.9,2.5,6,8.6,7.2,5.8,1.2,7.2,2.7,7.2,5.4h0c0,3-2.6,5.1-6.4,5.1s-6.3-1.2-9.1-3.8l-1.2,1.4c3.1,2.7,6.2,4.1,10.2,4.1s8.4-2.8,8.4-6.9h0c0-3.8-2.5-5.9-8.3-7.1Z"/>
  </g>
</svg>